<svg id="Layer_1" height="512" viewBox="0 0 512 512" width="512" xmlns="http://www.w3.org/2000/svg" data-name="Layer 1"><path d="m389.95 415.63v35.72a44.649 44.649 0 0 1 -44.65 44.65h-178.6a44.649 44.649 0 0 1 -44.65-44.65v-35.72z" fill="#6d7486"/><path d="m388.35 82.98h-266.3v332.65h267.9v-332.65z" fill="#d4e1f4"/><path d="m389.95 60.65v22.33h-267.9v-22.33a44.649 44.649 0 0 1 44.65-44.65h178.6a44.649 44.649 0 0 1 44.65 44.65z" fill="#6d7486"/><path d="m226.38 160.32-8.58 23.61 92 92 .13.35 23.77-8.64z" fill="#cc4e63"/><path d="m309.8 275.93.13.35-47.24 17.18a174.055 174.055 0 0 0 -38.54 19.75l-43.33-43.34q1.515-2.235 2.97-4.51a174.126 174.126 0 0 0 16.77-34.03l17.24-47.4z" fill="#e75163"/><path d="m245.9 334.96a27.594 27.594 0 0 1 0 39.02l-43.38-43.37a173.425 173.425 0 0 1 21.63-17.4z" fill="#4a5160"/><path d="m202.52 330.61q-1.74 1.665-3.45 3.37a13.809 13.809 0 0 1 -19.52 0l-19.51-19.51a13.8 13.8 0 0 1 0-19.52 173.41 173.41 0 0 0 20.78-25.08l43.33 43.34a173.425 173.425 0 0 0 -21.63 17.4z" fill="#6d7486"/><path d="m299.07 194.95a27.57 27.57 0 0 1 .47 38.53l-39-39a27.57 27.57 0 0 1 38.53.47z" fill="#6d7486"/><path d="m256 439.07a16.745 16.745 0 1 1 -16.74 16.74 16.74 16.74 0 0 1 16.74-16.74z" fill="#b0b5ca"/><path d="m217.8 183.93-17.24 47.4a174.126 174.126 0 0 1 -16.77 34.03q-1.455 2.28-2.97 4.51l14.813 14.816c6.11-6.479 17.433-18.191 18.157-19.326a174.126 174.126 0 0 0 16.77-34.03l9.239-25.4z" fill="#ff8398"/><path d="m240.467 206.597 8.58-23.61-22.667-22.667-8.58 23.61 92 92 .13.35.162-.059z" fill="#ef6784"/><path d="m152.05 451.35v-35.72h-30v35.72a44.649 44.649 0 0 0 44.65 44.65h30a44.649 44.649 0 0 1 -44.65-44.65z" fill="#4a5160"/><path d="m152.05 415.63v-332.65h-30v332.65z" fill="#bacadd"/><path d="m152.05 60.65a44.649 44.649 0 0 1 44.65-44.65h-30a44.649 44.649 0 0 0 -44.65 44.65v22.33h30z" fill="#4a5160"/><g fill="#284268"><path d="m166.7 502h178.6a50.708 50.708 0 0 0 50.65-50.651v-390.698a50.708 50.708 0 0 0 -50.65-50.651h-178.6a50.708 50.708 0 0 0 -50.65 50.651v390.7a50.708 50.708 0 0 0 50.65 50.649zm-38.653-413.023h38.286a6 6 0 0 0 0-12h-38.286v-16.326a38.7 38.7 0 0 1 38.653-38.651h178.6a38.7 38.7 0 0 1 38.65 38.651v16.326h-177.617a6 6 0 0 0 0 12h177.62v320.651h-255.906zm0 332.651h255.906v29.721a38.7 38.7 0 0 1 -38.653 38.651h-178.6a38.7 38.7 0 0 1 -38.65-38.651z"/><path d="m256 478.559a22.745 22.745 0 1 0 -22.744-22.746 22.771 22.771 0 0 0 22.744 22.746zm0-33.49a10.745 10.745 0 1 1 -10.744 10.744 10.756 10.756 0 0 1 10.744-10.744z"/><path d="m154.3 126.333a6 6 0 0 0 6-6v-6.3a6 6 0 0 0 -12 0v6.3a6 6 0 0 0 6 6z"/><path d="m154.3 212.333a6 6 0 0 0 6-6v-63a6 6 0 0 0 -12 0v63a6 6 0 0 0 6 6z"/><path d="m307.573 233.02a33.607 33.607 0 0 0 -46.573-46.572l-30.374-30.374a6 6 0 0 0 -9.881 2.192l-25.823 71.013a169.265 169.265 0 0 1 -39.122 61.433 19.82 19.82 0 0 0 0 28l19.513 19.513a19.752 19.752 0 0 0 27.129.787l39.214 39.215a6 6 0 0 0 8.486 0 33.636 33.636 0 0 0 0-47.511l-16.484-16.484a168.21 168.21 0 0 1 31.084-15.132l71.014-25.823a6 6 0 0 0 2.191-9.88zm-28.016-40.151a21.586 21.586 0 0 1 19.245 31.38l-29.03-29.03a21.486 21.486 0 0 1 9.785-2.35zm-84.734 136.868a7.8 7.8 0 0 1 -11.027 0l-19.513-19.512a7.81 7.81 0 0 1 0-11.029 179.038 179.038 0 0 0 17.28-20.091l33.352 33.353a179.129 179.129 0 0 0 -20.092 17.279zm46.831 9.46a21.638 21.638 0 0 1 3.644 25.7l-34.07-34.069q5.9-5.171 12.267-9.789zm18.987-51.377a180.472 180.472 0 0 0 -35.69 17.7l-36.451-36.451a180.441 180.441 0 0 0 17.7-35.69l14.018-38.548 78.973 78.969zm50.994-18.542-86.892-86.892 4.061-11.165 94 94z"/><path d="m276.147 157.041a6 6 0 1 0 4.485 11.131 34.747 34.747 0 0 1 45.215 45.214 6 6 0 1 0 11.131 4.486 46.748 46.748 0 0 0 -60.831-60.831z"/><path d="m268.469 136.944a6 6 0 0 0 4.484 11.131 56.093 56.093 0 0 1 72.99 72.991 6 6 0 1 0 11.131 4.484 68.093 68.093 0 0 0 -88.605-88.606z"/></g></svg>